<svg width="16" height="16" viewBox="0 0 16 16" fill="none" xmlns="http://www.w3.org/2000/svg">
<path d="M7.99969 15.5C6.01074 15.4999 4.10303 14.7097 2.69672 13.3033L7.99969 15.5ZM7.99969 15.5C9.98793 15.4975 11.8944 14.7065 13.3005 13.3005L13.3005 13.3005C14.7066 11.8946 15.4976 9.98798 15.5 7.9994C15.4998 6.01057 14.7096 4.10318 13.3033 2.6967C11.8969 1.29023 9.98907 0.5 8 0.5C6.01095 0.5 4.10332 1.29021 2.6967 2.69672C1.29023 4.1031 0.5 6.01093 0.5 8C0.5 9.98905 1.29021 11.8967 2.69672 13.3033L7.99969 15.5ZM11.4532 6.28144C11.4496 6.2851 11.4459 6.28874 11.4423 6.29236L11.4387 6.29592L9.7353 7.99984L11.436 9.70119C11.6705 9.92953 11.8042 10.2421 11.807 10.5697C11.8099 10.8988 11.6805 11.2154 11.4476 11.4482C11.2148 11.6811 10.8982 11.8105 10.5691 11.8076C10.2415 11.8047 9.9289 11.671 9.70055 11.4366L7.99999 9.73538L6.29945 11.4365C6.0711 11.671 5.75846 11.8047 5.43087 11.8076C5.10179 11.8105 4.78518 11.6811 4.55233 11.4482C4.31949 11.2154 4.19008 10.8988 4.19296 10.5697C4.19582 10.2422 4.3295 9.92953 4.56395 9.70119L6.26469 7.99983L4.56128 6.29579L4.56123 6.29585L4.55523 6.28963C4.25427 5.97798 4.1398 5.53067 4.25445 5.11255L4.25447 5.11248C4.36911 4.69464 4.69554 4.36818 5.11342 4.25354L5.11348 4.25352C5.53159 4.13888 5.97891 4.25334 6.29056 4.55431L6.29062 4.55425L6.29685 4.56048L8 6.26426L9.70053 4.56311C9.92888 4.32862 10.2415 4.1949 10.5691 4.19203C10.8982 4.18916 11.2148 4.31855 11.4477 4.55142C11.6805 4.78426 11.8099 5.10085 11.807 5.42995C11.8048 5.68002 11.7264 5.92139 11.5851 6.1232V6.14948L11.4532 6.28144Z" fill="#F2F3F4" stroke="#34495E"/>
</svg>
