<svg width="21" height="14" viewBox="0 0 21 14" fill="none" xmlns="http://www.w3.org/2000/svg">
<path d="M2.57812 1.85718C3.38021 1.05509 4.35417 0.654053 5.5 0.654053C6.64583 0.654053 7.61979 1.05509 8.42188 1.85718C9.22396 2.65926 9.625 3.63322 9.625 4.77905C9.625 6.1827 9.05208 7.29989 7.90625 8.13062C8.96615 8.64624 9.76823 9.39103 10.3125 10.365C10.8568 9.39103 11.6589 8.64624 12.7188 8.13062C11.5729 7.29989 11 6.1827 11 4.77905C11 3.63322 11.401 2.65926 12.2031 1.85718C13.0052 1.05509 13.9792 0.654053 15.125 0.654053C16.2708 0.654053 17.2448 1.05509 18.0469 1.85718C18.849 2.65926 19.25 3.63322 19.25 4.77905C19.25 6.1827 18.6771 7.29989 17.5312 8.13062C18.4766 8.58895 19.2214 9.26213 19.7656 10.1501C20.3385 11.0095 20.625 11.9692 20.625 13.0291H19.25C19.25 11.8832 18.849 10.9093 18.0469 10.1072C17.2448 9.30509 16.2708 8.90405 15.125 8.90405C13.9792 8.90405 13.0052 9.30509 12.2031 10.1072C11.401 10.9093 11 11.8832 11 13.0291H9.625C9.625 11.8832 9.22396 10.9093 8.42188 10.1072C7.61979 9.30509 6.64583 8.90405 5.5 8.90405C4.35417 8.90405 3.38021 9.30509 2.57812 10.1072C1.77604 10.9093 1.375 11.8832 1.375 13.0291H0C0 11.9692 0.272135 11.0095 0.816406 10.1501C1.38932 9.26213 2.14844 8.58895 3.09375 8.13062C1.94792 7.29989 1.375 6.1827 1.375 4.77905C1.375 3.63322 1.77604 2.65926 2.57812 1.85718ZM7.43359 2.84546C6.91797 2.30119 6.27344 2.02905 5.5 2.02905C4.72656 2.02905 4.06771 2.30119 3.52344 2.84546C3.00781 3.36108 2.75 4.00562 2.75 4.77905C2.75 5.55249 3.00781 6.21134 3.52344 6.75562C4.06771 7.27124 4.72656 7.52905 5.5 7.52905C6.27344 7.52905 6.91797 7.27124 7.43359 6.75562C7.97786 6.21134 8.25 5.55249 8.25 4.77905C8.25 4.00562 7.97786 3.36108 7.43359 2.84546ZM17.0586 2.84546C16.543 2.30119 15.8984 2.02905 15.125 2.02905C14.3516 2.02905 13.6927 2.30119 13.1484 2.84546C12.6328 3.36108 12.375 4.00562 12.375 4.77905C12.375 5.55249 12.6328 6.21134 13.1484 6.75562C13.6927 7.27124 14.3516 7.52905 15.125 7.52905C15.8984 7.52905 16.543 7.27124 17.0586 6.75562C17.6029 6.21134 17.875 5.55249 17.875 4.77905C17.875 4.00562 17.6029 3.36108 17.0586 2.84546Z" fill="#202224"/>
</svg>
