<svg width="18" height="18" viewBox="0 0 18 18" fill="none" xmlns="http://www.w3.org/2000/svg">
<path d="M3.15625 3.35474C4.78906 1.72192 6.73698 0.905518 9 0.905518C11.263 0.905518 13.1966 1.72192 14.8008 3.35474C16.4336 4.9589 17.25 6.8925 17.25 9.15552C17.25 11.4185 16.4336 13.3665 14.8008 14.9993C13.1966 16.6034 11.263 17.4055 9 17.4055C6.73698 17.4055 4.78906 16.6034 3.15625 14.9993C1.55208 13.3665 0.75 11.4185 0.75 9.15552C0.75 6.8925 1.55208 4.9589 3.15625 3.35474ZM13.8555 4.30005C12.5091 2.95369 10.8906 2.28052 9 2.28052C7.10938 2.28052 5.49089 2.95369 4.14453 4.30005C2.79818 5.6464 2.125 7.26489 2.125 9.15552C2.125 11.0461 2.79818 12.6646 4.14453 14.011C5.49089 15.3573 7.10938 16.0305 9 16.0305C10.8906 16.0305 12.5091 15.3573 13.8555 14.011C15.2018 12.6646 15.875 11.0461 15.875 9.15552C15.875 7.26489 15.2018 5.6464 13.8555 4.30005ZM8.48438 3.18286C8.6276 3.03963 8.79948 2.96802 9 2.96802C9.20052 2.96802 9.35807 3.03963 9.47266 3.18286C9.61589 3.29744 9.6875 3.455 9.6875 3.65552C9.6875 3.85604 9.61589 4.02791 9.47266 4.17114C9.35807 4.28573 9.20052 4.34302 9 4.34302C8.79948 4.34302 8.6276 4.28573 8.48438 4.17114C8.36979 4.02791 8.3125 3.85604 8.3125 3.65552C8.3125 3.455 8.36979 3.29744 8.48438 3.18286ZM4.61719 4.81567C4.76042 4.67244 4.91797 4.60083 5.08984 4.60083C5.29036 4.60083 5.46224 4.67244 5.60547 4.81567C5.7487 4.93026 5.82031 5.08781 5.82031 5.28833C5.82031 5.46021 5.7487 5.61776 5.60547 5.76099C5.46224 5.90422 5.29036 5.97583 5.08984 5.97583C4.91797 5.97583 4.76042 5.90422 4.61719 5.76099C4.5026 5.61776 4.44531 5.46021 4.44531 5.28833C4.44531 5.08781 4.5026 4.93026 4.61719 4.81567ZM12.3945 4.77271L13.3828 5.76099L10.332 8.81177C10.3607 8.92635 10.375 9.04093 10.375 9.15552C10.375 9.52791 10.2318 9.85734 9.94531 10.1438C9.6875 10.4016 9.3724 10.5305 9 10.5305C8.6276 10.5305 8.29818 10.4016 8.01172 10.1438C7.75391 9.85734 7.625 9.52791 7.625 9.15552C7.625 8.78312 7.75391 8.46802 8.01172 8.21021C8.29818 7.92375 8.6276 7.78052 9 7.78052C9.11458 7.78052 9.22917 7.79484 9.34375 7.82349L12.3945 4.77271ZM2.98438 8.68286C3.1276 8.53963 3.29948 8.46802 3.5 8.46802C3.70052 8.46802 3.85807 8.53963 3.97266 8.68286C4.11589 8.79744 4.1875 8.955 4.1875 9.15552C4.1875 9.35604 4.11589 9.52791 3.97266 9.67114C3.85807 9.78573 3.70052 9.84302 3.5 9.84302C3.29948 9.84302 3.1276 9.78573 2.98438 9.67114C2.86979 9.52791 2.8125 9.35604 2.8125 9.15552C2.8125 8.955 2.86979 8.79744 2.98438 8.68286ZM13.9844 8.68286C14.1276 8.53963 14.2995 8.46802 14.5 8.46802C14.7005 8.46802 14.8581 8.53963 14.9727 8.68286C15.1159 8.79744 15.1875 8.955 15.1875 9.15552C15.1875 9.35604 15.1159 9.52791 14.9727 9.67114C14.8581 9.78573 14.7005 9.84302 14.5 9.84302C14.2995 9.84302 14.1276 9.78573 13.9844 9.67114C13.8698 9.52791 13.8125 9.35604 13.8125 9.15552C13.8125 8.955 13.8698 8.79744 13.9844 8.68286ZM4.61719 12.55C4.76042 12.4068 4.91797 12.3352 5.08984 12.3352C5.29036 12.3352 5.46224 12.4068 5.60547 12.55C5.7487 12.6933 5.82031 12.8652 5.82031 13.0657C5.82031 13.2375 5.7487 13.3951 5.60547 13.5383C5.46224 13.6529 5.29036 13.7102 5.08984 13.7102C4.91797 13.7102 4.76042 13.6529 4.61719 13.5383C4.5026 13.3951 4.44531 13.2375 4.44531 13.0657C4.44531 12.8652 4.5026 12.6933 4.61719 12.55ZM12.3945 12.55C12.5378 12.4068 12.6953 12.3352 12.8672 12.3352C13.0677 12.3352 13.2253 12.4068 13.3398 12.55C13.4831 12.6933 13.5547 12.8652 13.5547 13.0657C13.5547 13.2375 13.4831 13.3951 13.3398 13.5383C13.2253 13.6529 13.0677 13.7102 12.8672 13.7102C12.6953 13.7102 12.5378 13.6529 12.3945 13.5383C12.2513 13.3951 12.1797 13.2375 12.1797 13.0657C12.1797 12.8652 12.2513 12.6933 12.3945 12.55Z" fill="#202224"/>
</svg>
