<svg width="18" height="17" viewBox="0 0 18 17" fill="none" xmlns="http://www.w3.org/2000/svg">
<path d="M8.3125 0.498047H9.6875V8.74805H8.3125V0.498047ZM6.25 0.970703V2.47461C5.01823 2.99023 4.01562 3.82096 3.24219 4.9668C2.4974 6.11263 2.125 7.37305 2.125 8.74805C2.125 10.6387 2.79818 12.2572 4.14453 13.6035C5.49089 14.9499 7.10938 15.623 9 15.623C10.8906 15.623 12.5091 14.9499 13.8555 13.6035C15.2018 12.2572 15.875 10.6387 15.875 8.74805C15.875 7.37305 15.4883 6.11263 14.7148 4.9668C13.9701 3.82096 12.9818 2.99023 11.75 2.47461V0.970703C13.3828 1.54362 14.7005 2.54622 15.7031 3.97852C16.7344 5.38216 17.25 6.97201 17.25 8.74805C17.25 11.0111 16.4336 12.959 14.8008 14.5918C13.1966 16.196 11.263 16.998 9 16.998C6.73698 16.998 4.78906 16.196 3.15625 14.5918C1.55208 12.959 0.75 11.0111 0.75 8.74805C0.75 6.97201 1.2513 5.38216 2.25391 3.97852C3.28516 2.54622 4.61719 1.54362 6.25 0.970703Z" fill="#202224"/>
</svg>
