<svg width="18" height="19" viewBox="0 0 18 19" fill="none" xmlns="http://www.w3.org/2000/svg">
<path d="M7.06641 0.175049H7.625H10.375H10.9336L11.0625 0.733643L11.4492 2.75317C12.0794 3.01099 12.6667 3.36906 13.2109 3.82739L15.2305 3.13989L15.7891 2.96802L16.0469 3.44067L17.4219 5.84692L17.6797 6.31958L17.293 6.7063L15.7461 8.03833C15.832 8.55396 15.875 8.91203 15.875 9.11255C15.875 9.31307 15.832 9.67114 15.7461 10.1868L17.293 11.5188L17.6797 11.9055L17.4219 12.3782L16.0469 14.7844L15.7891 15.2571L15.2305 15.0852L13.2109 14.3977C12.6667 14.856 12.0794 15.2141 11.4492 15.4719L11.0625 17.4915L10.9336 18.05H10.375H7.625H7.06641L6.9375 17.4915L6.55078 15.4719C5.92057 15.2141 5.33333 14.856 4.78906 14.3977L2.76953 15.0852L2.21094 15.2571L1.95312 14.7844L0.578125 12.3782L0.320312 11.9055L0.707031 11.5188L2.25391 10.1868C2.16797 9.67114 2.125 9.31307 2.125 9.11255C2.125 8.91203 2.16797 8.55396 2.25391 8.03833L0.707031 6.7063L0.320312 6.31958L0.578125 5.84692L1.95312 3.44067L2.21094 2.96802L2.76953 3.13989L4.78906 3.82739C5.33333 3.36906 5.92057 3.01099 6.55078 2.75317L6.9375 0.733643L7.06641 0.175049ZM8.18359 1.55005L7.83984 3.35474L7.75391 3.74146L7.36719 3.87036C6.59375 4.12817 5.90625 4.52922 5.30469 5.07349L4.96094 5.3313L4.61719 5.24536L2.85547 4.6438L2.03906 6.0188L3.41406 7.22192L3.75781 7.47974L3.62891 7.90942C3.54297 8.28182 3.5 8.68286 3.5 9.11255C3.5 9.54224 3.54297 9.94328 3.62891 10.3157L3.75781 10.7454L3.41406 11.0032L2.03906 12.2063L2.85547 13.5813L4.61719 12.9797L4.96094 12.8938L5.30469 13.1516C5.90625 13.6959 6.59375 14.0969 7.36719 14.3547L7.75391 14.4836L7.83984 14.8704L8.18359 16.675H9.81641L10.1602 14.8704L10.2461 14.4836L10.6328 14.3547C11.4062 14.0969 12.0938 13.6959 12.6953 13.1516L13.0391 12.8938L13.3828 12.9797L15.1445 13.5813L15.9609 12.2063L14.5859 11.0032L14.2852 10.7454L14.3711 10.3157C14.457 9.94328 14.5 9.54224 14.5 9.11255C14.5 8.68286 14.457 8.28182 14.3711 7.90942L14.2422 7.47974L14.5859 7.22192L15.9609 6.0188L15.1445 4.6438L13.3828 5.24536L13.0391 5.3313L12.6953 5.07349C12.0938 4.52922 11.4062 4.12817 10.6328 3.87036L10.2461 3.74146L10.1602 3.35474L9.81641 1.55005H8.18359ZM6.55078 6.7063C7.23828 6.0188 8.05469 5.67505 9 5.67505C9.94531 5.67505 10.7474 6.0188 11.4062 6.7063C12.0938 7.36515 12.4375 8.16724 12.4375 9.11255C12.4375 10.0579 12.0938 10.8743 11.4062 11.5618C10.7474 12.2206 9.94531 12.55 9 12.55C8.05469 12.55 7.23828 12.2206 6.55078 11.5618C5.89193 10.8743 5.5625 10.0579 5.5625 9.11255C5.5625 8.16724 5.89193 7.36515 6.55078 6.7063ZM10.4609 7.65161C10.0599 7.25057 9.57292 7.05005 9 7.05005C8.42708 7.05005 7.9401 7.25057 7.53906 7.65161C7.13802 8.05265 6.9375 8.53963 6.9375 9.11255C6.9375 9.68547 7.13802 10.1724 7.53906 10.5735C7.9401 10.9745 8.42708 11.175 9 11.175C9.57292 11.175 10.0599 10.9745 10.4609 10.5735C10.862 10.1724 11.0625 9.68547 11.0625 9.11255C11.0625 8.53963 10.862 8.05265 10.4609 7.65161Z" fill="#202224"/>
</svg>
