<svg width="26" height="22" viewBox="0 0 26 22" fill="none" xmlns="http://www.w3.org/2000/svg">
<g clip-path="url(#clip0_1432_7765)">
<path d="M20.6636 13.1181C20.5945 13.0332 20.5267 12.9484 20.4601 12.8666C19.5442 11.738 18.9901 11.0569 18.9901 7.8621C18.9901 6.20808 18.6016 4.85094 17.836 3.83308C17.2715 3.08114 16.5084 2.51071 15.5026 2.08915C15.4896 2.08182 15.4781 2.0722 15.4684 2.06074C15.1067 0.826585 14.1167 0 13.0001 0C11.8835 0 10.894 0.826585 10.5322 2.05946C10.5225 2.07052 10.5111 2.07984 10.4985 2.08703C8.15128 3.07138 7.01057 4.95993 7.01057 7.86083C7.01057 11.0569 6.45729 11.738 5.54056 12.8653C5.47395 12.9471 5.40609 13.0303 5.33698 13.1168C5.15847 13.3361 5.04536 13.6029 5.01106 13.8857C4.97675 14.1684 5.02267 14.4553 5.1434 14.7123C5.40026 15.2636 5.94772 15.6059 6.57261 15.6059H19.4322C20.0542 15.6059 20.5979 15.264 20.8556 14.7152C20.9768 14.4582 21.0232 14.1711 20.9892 13.888C20.9551 13.6049 20.8422 13.3377 20.6636 13.1181ZM13.0001 19C13.6017 18.9995 14.1919 18.8331 14.7082 18.5186C15.2245 18.204 15.6476 17.7529 15.9326 17.2132C15.9461 17.1874 15.9527 17.1584 15.9519 17.1292C15.9511 17.0999 15.9429 17.0714 15.928 17.0463C15.9132 17.0213 15.8922 17.0005 15.8672 16.9862C15.8422 16.9718 15.814 16.9643 15.7853 16.9643H10.2158C10.187 16.9642 10.1587 16.9717 10.1337 16.986C10.1086 17.0004 10.0876 17.0211 10.0727 17.0461C10.0578 17.0712 10.0496 17.0998 10.0487 17.1291C10.0479 17.1583 10.0546 17.1873 10.068 17.2132C10.353 17.7529 10.776 18.2039 11.2922 18.5185C11.8084 18.833 12.3986 18.9994 13.0001 19Z" fill="#3498DB"/>
</g>
<defs>
<clipPath id="clip0_1432_7765">
<rect width="26" height="21" fill="white" transform="translate(0 0.13916)"/>
</clipPath>
</defs>
</svg>
