<svg width="60" height="60" viewBox="0 0 60 60" fill="none" xmlns="http://www.w3.org/2000/svg">
<path opacity="0.5" d="M38.0742 49.375H16.2542L16.2342 49.37C15.7417 49.2998 15.2743 49.1082 14.8742 48.8125C14.3417 48.4125 13.5717 47.555 13.2617 45.625H36.9792C37.1542 47.135 37.5442 48.3725 38.0742 49.375ZM34.8117 21.265C34.9942 21.25 35.1967 21.25 35.3417 21.25H40.9067C41.0517 21.25 41.2542 21.25 41.4367 21.265C41.6567 21.2825 42.0092 21.3325 42.3867 21.5225C42.8562 21.7626 43.2377 22.145 43.4767 22.615C43.6692 22.99 43.7167 23.34 43.7342 23.5625C43.7492 23.745 43.7492 23.9475 43.7492 24.0925V28.4075C43.7492 28.5525 43.7492 28.755 43.7342 28.9375C43.7119 29.2672 43.6243 29.5893 43.4767 29.885C43.237 30.3554 42.8546 30.7378 42.3842 30.9775C42.0092 31.1675 41.6592 31.2175 41.4367 31.235C41.2603 31.2462 41.0835 31.2512 40.9067 31.25H35.3417C35.1967 31.25 34.9942 31.25 34.8117 31.235C34.482 31.2126 34.1599 31.1251 33.8642 30.9775C33.3938 30.7378 33.0114 30.3554 32.7717 29.885C32.6241 29.5893 32.5366 29.2672 32.5142 28.9375C32.4992 28.755 32.4992 28.5525 32.4992 28.4075V24.0925C32.4992 23.9475 32.4992 23.745 32.5142 23.5625C32.5317 23.3425 32.5817 22.99 32.7717 22.615C33.0114 22.1446 33.3938 21.7622 33.8642 21.5225C34.2392 21.3325 34.5892 21.2825 34.8117 21.265ZM23.7492 23.75C23.7492 23.2527 23.9468 22.7758 24.2984 22.4242C24.65 22.0725 25.1269 21.875 25.6242 21.875H28.7492C29.2465 21.875 29.7234 22.0725 30.075 22.4242C30.4267 22.7758 30.6242 23.2527 30.6242 23.75C30.6242 24.2473 30.4267 24.7242 30.075 25.0758C29.7234 25.4275 29.2465 25.625 28.7492 25.625H25.6242C25.1269 25.625 24.65 25.4275 24.2984 25.0758C23.9468 24.7242 23.7492 24.2473 23.7492 23.75ZM23.7492 29.375C23.7492 28.8777 23.9468 28.4008 24.2984 28.0492C24.65 27.6975 25.1269 27.5 25.6242 27.5H28.7492C29.2465 27.5 29.7234 27.6975 30.075 28.0492C30.4267 28.4008 30.6242 28.8777 30.6242 29.375C30.6242 29.8723 30.4267 30.3492 30.075 30.7008C29.7234 31.0525 29.2465 31.25 28.7492 31.25H25.6242C25.1269 31.25 24.65 31.0525 24.2984 30.7008C23.9468 30.3492 23.7492 29.8723 23.7492 29.375ZM25.6242 34.375C25.1269 34.375 24.65 34.5725 24.2984 34.9242C23.9468 35.2758 23.7492 35.7527 23.7492 36.25C23.7492 36.7473 23.9468 37.2242 24.2984 37.5758C24.65 37.9275 25.1269 38.125 25.6242 38.125H41.8742C42.3715 38.125 42.8484 37.9275 43.2 37.5758C43.5517 37.2242 43.7492 36.7473 43.7492 36.25C43.7492 35.7527 43.5517 35.2758 43.2 34.9242C42.8484 34.5725 42.3715 34.375 41.8742 34.375H25.6242Z" fill="#4A84AA"/>
<path d="M26.25 13.75C25.587 13.75 24.9511 14.0134 24.4822 14.4822C24.0134 14.9511 23.75 15.587 23.75 16.25C23.75 16.913 24.0134 17.5489 24.4822 18.0178C24.9511 18.4866 25.587 18.75 26.25 18.75H41.25C41.913 18.75 42.5489 18.4866 43.0178 18.0178C43.4866 17.5489 43.75 16.913 43.75 16.25C43.75 15.587 43.4866 14.9511 43.0178 14.4822C42.5489 14.0134 41.913 13.75 41.25 13.75H26.25Z" fill="#4A84AA"/>
<path d="M26.675 6.875H40.825C42.1625 6.875 43.275 6.875 44.1875 6.95C45.1375 7.025 46.0275 7.195 46.87 7.625C48.1639 8.28418 49.2158 9.33612 49.875 10.63C50.305 11.4725 50.475 12.3625 50.55 13.3125C50.625 14.225 50.625 15.3375 50.625 16.675V43.325C50.625 44.6625 50.625 45.775 50.55 46.6875C50.475 47.6375 50.305 48.5275 49.875 49.37C49.2165 50.6635 48.1655 51.7154 46.8725 52.375C46.0625 52.7875 45.2075 52.975 44.25 53.0575C44.0869 53.101 43.9188 53.1237 43.75 53.125H41.6175L33.1625 53.1325C27.52 53.1425 21.88 53.15 16.2375 53.125C16.1042 53.125 15.9708 53.1167 15.8375 53.1C14.6738 52.9569 13.5675 52.5132 12.6275 51.8125C10.805 50.4475 9.375 47.9575 9.375 43.75C9.375 43.2527 9.57254 42.7758 9.92417 42.4242C10.2758 42.0725 10.7527 41.875 11.25 41.875H16.875V16.675C16.875 15.3375 16.875 14.225 16.95 13.3125C17.025 12.3625 17.195 11.4725 17.625 10.63C18.2842 9.33612 19.3361 8.28418 20.63 7.625C21.4725 7.195 22.3625 7.025 23.3125 6.95C24.225 6.875 25.3375 6.875 26.675 6.875ZM45.1675 49.035C45.7565 48.7352 46.2352 48.2565 46.535 47.6675C46.65 47.4425 46.755 47.1 46.8125 46.38C46.8725 45.6425 46.875 44.68 46.875 43.25V16.75C46.875 15.32 46.875 14.3575 46.8125 13.6175C46.755 12.9 46.65 12.5575 46.535 12.3325C46.2352 11.7435 45.7565 11.2648 45.1675 10.965C44.9425 10.85 44.6 10.745 43.88 10.6875C43.1425 10.6275 42.18 10.625 40.75 10.625H26.75C25.32 10.625 24.3575 10.625 23.6175 10.6875C22.9 10.745 22.5575 10.85 22.3325 10.965C21.7435 11.2648 21.2648 11.7435 20.965 12.3325C20.85 12.5575 20.745 12.9 20.6875 13.6175C20.6275 14.3575 20.625 15.3175 20.625 16.75V41.875H38.75C39.2473 41.875 39.7242 42.0725 40.0758 42.4242C40.4275 42.7758 40.625 43.2527 40.625 43.75C40.625 47.0425 41.695 48.3 42.375 48.8125C42.7251 49.0729 43.1278 49.2537 43.555 49.3425C44.43 49.3025 44.8125 49.2175 45.1675 49.035ZM16.28 49.375H38.0725C37.5425 48.3725 37.155 47.135 36.98 45.625H13.26C13.57 47.555 14.34 48.4125 14.8725 48.8125C15.2726 49.1082 15.74 49.2998 16.2325 49.37L16.2525 49.3725L16.28 49.375Z" fill="#4A84AA"/>
</svg>
