<svg width="78" height="78" viewBox="0 0 78 78" fill="none" xmlns="http://www.w3.org/2000/svg">
<path fill-rule="evenodd" clip-rule="evenodd" d="M38.9997 68.64C57.9541 68.64 73.3197 53.2744 73.3197 34.32C73.3197 15.3656 57.9541 0 38.9997 0C20.0453 0 4.67969 15.3656 4.67969 34.32C4.67969 43.2429 8.08488 51.3705 13.6666 57.4741C14.3859 58.2607 14.8197 59.2749 14.8197 60.3408V73.1872C14.8197 76.1365 17.9027 78.0717 20.5587 76.7894L37.415 68.6519C37.4248 68.6472 37.4246 68.6332 37.4147 68.6288C37.4018 68.623 37.4064 68.6037 37.4205 68.6043C37.9439 68.628 38.4704 68.64 38.9997 68.64Z" fill="#385F7A"/>
<path fill-rule="evenodd" clip-rule="evenodd" d="M35.8711 36.5652C35.8711 38.222 37.2142 39.5652 38.8711 39.5652H39.132C40.7888 39.5652 42.132 38.222 42.132 36.5652L42.132 23.0869C42.132 21.4301 40.7888 20.0869 39.132 20.0869H38.8711C37.2142 20.0869 35.8711 21.4301 35.8711 23.0869V36.5652ZM39.0015 47.913C40.7304 47.913 42.132 46.5115 42.132 44.7826C42.132 43.0537 40.7304 41.6521 39.0015 41.6521C37.2726 41.6521 35.8711 43.0537 35.8711 44.7826C35.8711 46.5115 37.2726 47.913 39.0015 47.913Z" fill="#E4F1FE"/>
</svg>
